<svg width="85" height="85" viewBox="0 0 100 100" fill="none" xmlns="http://www.w3.org/2000/svg">
<g style="mix-blend-mode:multiply" opacity="0.2">
<path d="M31.1406 76.5625C30.04 76.5743 28.9736 76.9467 28.1049 77.6226C27.2362 78.2985 26.6131 79.2407 26.3311 80.3047C26.0492 81.3686 26.1239 82.4957 26.5439 83.5131C26.9639 84.5306 27.7059 85.3822 28.6563 85.9375L46.4063 96C47.8683 96.8311 49.5214 97.2673 51.2031 97.2656C52.1079 97.265 53.0079 97.1335 53.875 96.875L80.5781 89.2656C82.5699 88.6934 84.3219 87.4895 85.5703 85.8353C86.8187 84.1811 87.4959 82.1661 87.5 80.0937V76.5625H31.1406Z" fill="white"/>
</g>
<g style="mix-blend-mode:multiply" opacity="0.12">
<path d="M31.1406 76.5625C30.04 76.5743 28.9736 76.9467 28.1049 77.6226C27.2362 78.2985 26.6131 79.2407 26.3311 80.3047C26.0492 81.3686 26.1239 82.4957 26.5439 83.5131C26.9639 84.5306 27.7059 85.3822 28.6563 85.9375L46.4063 96C47.8683 96.8311 49.5214 97.2673 51.2031 97.2656C52.1079 97.265 53.0079 97.1335 53.875 96.875L80.5781 89.2656C82.5699 88.6934 84.3219 87.4895 85.5703 85.8353C86.8187 84.1811 87.4959 82.1661 87.5 80.0937V76.5625H31.1406Z" fill="white"/>
</g>
<path d="M53.7656 3.125L60.9375 19.5312V76.5625L53.875 96.875L80.5781 89.2656C82.5699 88.6934 84.3219 87.4895 85.5703 85.8353C86.8187 84.1811 87.4959 82.1661 87.5 80.0937V19.9062C87.5009 17.8285 86.824 15.8072 85.5719 14.1491C84.3199 12.491 82.5611 11.2866 80.5625 10.7188L53.7656 3.125Z" fill="url(#paint0_linear_15_545)"/>
<path d="M19.9063 75.9531L27.7188 71.7344C28.7902 71.1455 29.6834 70.2792 30.3047 69.2263C30.926 68.1733 31.2526 66.9726 31.25 65.75V35.0469C31.2515 33.6483 31.6823 32.284 32.4843 31.1382C33.2863 29.9925 34.4208 29.1207 35.7344 28.6406L60.9375 19.5313V12.6094C60.9346 10.464 60.2331 8.37796 58.9391 6.66675C57.6451 4.95554 55.8291 3.71227 53.7656 3.12501C52.8869 2.87268 51.9768 2.74642 51.0625 2.75001C49.3429 2.75395 47.6532 3.20058 46.1563 4.04689L17.3125 20.5C15.8509 21.3329 14.6357 22.5377 13.7905 23.9922C12.9452 25.4467 12.5 27.099 12.5 28.7813V71.5313C12.4978 72.4014 12.722 73.2571 13.1506 74.0143C13.5792 74.7716 14.1974 75.4043 14.9445 75.8504C15.6916 76.2964 16.5418 76.5404 17.4118 76.5585C18.2817 76.5765 19.1413 76.3679 19.9063 75.9531Z" fill="url(#paint1_linear_15_545)"/>
<path d="M60.9375 76.5625H31.1406C30.04 76.5743 28.9736 76.9467 28.1049 77.6226C27.2362 78.2985 26.6131 79.2407 26.3311 80.3047C26.0492 81.3686 26.1239 82.4957 26.5439 83.5131C26.9639 84.5306 27.7059 85.3822 28.6563 85.9375L46.4063 96C47.8683 96.8311 49.5214 97.2673 51.2031 97.2656C52.1079 97.265 53.0079 97.1335 53.875 96.875C55.9133 96.2959 57.7064 95.0665 58.9814 93.3741C60.2563 91.6816 60.9432 89.6189 60.9375 87.5V76.5625Z" fill="url(#paint2_linear_15_545)"/>
<path d="M19.9063 75.9531L27.7188 71.7344C28.7902 71.1455 29.6834 70.2792 30.3047 69.2263C30.926 68.1733 31.2526 66.9726 31.25 65.75V35.0469C31.2515 33.6483 31.6823 32.284 32.4843 31.1382C33.2863 29.9925 34.4208 29.1207 35.7344 28.6406L60.9375 19.5313V12.6094C60.9346 10.464 60.2331 8.37796 58.9391 6.66675C57.6451 4.95554 55.8291 3.71227 53.7656 3.12501C52.8869 2.87268 51.9768 2.74642 51.0625 2.75001C49.3429 2.75395 47.6532 3.20058 46.1563 4.04689L17.3125 20.5C15.8509 21.3329 14.6357 22.5377 13.7905 23.9922C12.9452 25.4467 12.5 27.099 12.5 28.7813V71.5313C12.4978 72.4014 12.722 73.2571 13.1506 74.0143C13.5792 74.7716 14.1974 75.4043 14.9445 75.8504C15.6916 76.2964 16.5418 76.5404 17.4118 76.5585C18.2817 76.5765 19.1413 76.3679 19.9063 75.9531Z" fill="url(#paint3_linear_15_545)"/>
<path d="M60.9375 76.5625H31.1406C30.04 76.5743 28.9736 76.9467 28.1049 77.6226C27.2362 78.2985 26.6131 79.2407 26.3311 80.3047C26.0492 81.3686 26.1239 82.4957 26.5439 83.5131C26.9639 84.5306 27.7059 85.3822 28.6563 85.9375L46.4063 96C47.8683 96.8311 49.5214 97.2673 51.2031 97.2656C52.1079 97.265 53.0079 97.1335 53.875 96.875C55.9133 96.2959 57.7064 95.0665 58.9814 93.3741C60.2563 91.6816 60.9432 89.6189 60.9375 87.5V76.5625Z" fill="url(#paint4_linear_15_545)"/>
<defs>
<linearGradient id="paint0_linear_15_545" x1="70.625" y1="-2.21875" x2="70.625" y2="90.3125" gradientUnits="userSpaceOnUse">
<stop stop-color="#FFB900"/>
<stop offset="0.17" stop-color="#EF8400"/>
<stop offset="0.31" stop-color="#E25C01"/>
<stop offset="0.43" stop-color="#DB4401"/>
<stop offset="0.5" stop-color="#D83B01"/>
</linearGradient>
<linearGradient id="paint1_linear_15_545" x1="53.9375" y1="1.04689" x2="4.93752" y2="71.0156" gradientUnits="userSpaceOnUse">
<stop stop-color="#800600"/>
<stop offset="0.6" stop-color="#C72127"/>
<stop offset="0.73" stop-color="#C13959"/>
<stop offset="0.85" stop-color="#BC4B81"/>
<stop offset="0.94" stop-color="#B95799"/>
<stop offset="1" stop-color="#B85BA2"/>
</linearGradient>
<linearGradient id="paint2_linear_15_545" x1="28.9063" y1="86.9219" x2="92.875" y2="86.9219" gradientUnits="userSpaceOnUse">
<stop stop-color="#F32B44"/>
<stop offset="0.6" stop-color="#A4070A"/>
</linearGradient>
<linearGradient id="paint3_linear_15_545" x1="54.9375" y1="-0.374987" x2="44.5625" y2="14.4375" gradientUnits="userSpaceOnUse">
<stop stop-opacity="0.4"/>
<stop offset="1" stop-opacity="0"/>
</linearGradient>
<linearGradient id="paint4_linear_15_545" x1="72.375" y1="88.3594" x2="43.7344" y2="85.8594" gradientUnits="userSpaceOnUse">
<stop stop-opacity="0.4"/>
<stop offset="1" stop-opacity="0"/>
</linearGradient>
</defs>
</svg>
