<svg width="1100" height="200" viewBox="0 0 1100 200" fill="none" xmlns="http://www.w3.org/2000/svg">
<rect x="830" width="270" height="200" fill="url(#paint0_linear_308_90)"/>
<g style="mix-blend-mode:multiply" opacity="0.2">
<path d="M946.141 126.562C945.04 126.574 943.974 126.947 943.105 127.623C942.236 128.299 941.613 129.241 941.331 130.305C941.049 131.369 941.124 132.496 941.544 133.513C941.964 134.531 942.706 135.382 943.656 135.938L961.406 146C962.868 146.831 964.521 147.267 966.203 147.266C967.108 147.265 968.008 147.133 968.875 146.875L995.578 139.266C997.57 138.693 999.322 137.489 1000.57 135.835C1001.82 134.181 1002.5 132.166 1002.5 130.094V126.562H946.141Z" fill="white"/>
</g>
<g style="mix-blend-mode:multiply" opacity="0.12">
<path d="M946.141 126.562C945.04 126.574 943.974 126.947 943.105 127.623C942.236 128.299 941.613 129.241 941.331 130.305C941.049 131.369 941.124 132.496 941.544 133.513C941.964 134.531 942.706 135.382 943.656 135.938L961.406 146C962.868 146.831 964.521 147.267 966.203 147.266C967.108 147.265 968.008 147.133 968.875 146.875L995.578 139.266C997.57 138.693 999.322 137.489 1000.57 135.835C1001.82 134.181 1002.5 132.166 1002.5 130.094V126.562H946.141Z" fill="white"/>
</g>
<path d="M968.766 53.125L975.938 69.5312V126.562L968.875 146.875L995.578 139.266C997.57 138.693 999.322 137.489 1000.57 135.835C1001.82 134.181 1002.5 132.166 1002.5 130.094V69.9062C1002.5 67.8285 1001.82 65.8072 1000.57 64.1491C999.32 62.491 997.561 61.2866 995.563 60.7188L968.766 53.125Z" fill="url(#paint1_linear_308_90)"/>
<path d="M934.906 125.953L942.719 121.734C943.79 121.146 944.683 120.279 945.305 119.226C945.926 118.173 946.253 116.973 946.25 115.75V85.0469C946.251 83.6483 946.682 82.284 947.484 81.1382C948.286 79.9925 949.421 79.1207 950.734 78.6406L975.938 69.5312V62.6094C975.935 60.464 975.233 58.3779 973.939 56.6667C972.645 54.9555 970.829 53.7123 968.766 53.125C967.887 52.8727 966.977 52.7464 966.063 52.75C964.343 52.7539 962.653 53.2006 961.156 54.0469L932.313 70.5C930.851 71.3329 929.636 72.5377 928.79 73.9922C927.945 75.4467 927.5 77.099 927.5 78.7812V121.531C927.498 122.401 927.722 123.257 928.151 124.014C928.579 124.772 929.197 125.404 929.944 125.85C930.692 126.296 931.542 126.54 932.412 126.558C933.282 126.576 934.141 126.368 934.906 125.953Z" fill="url(#paint2_linear_308_90)"/>
<path d="M975.937 126.562H946.141C945.04 126.574 943.974 126.947 943.105 127.623C942.236 128.299 941.613 129.241 941.331 130.305C941.049 131.369 941.124 132.496 941.544 133.513C941.964 134.531 942.706 135.382 943.656 135.938L961.406 146C962.868 146.831 964.521 147.267 966.203 147.266C967.108 147.265 968.008 147.133 968.875 146.875C970.913 146.296 972.706 145.066 973.981 143.374C975.256 141.682 975.943 139.619 975.937 137.5V126.562Z" fill="url(#paint3_linear_308_90)"/>
<path d="M934.906 125.953L942.719 121.734C943.79 121.146 944.683 120.279 945.305 119.226C945.926 118.173 946.253 116.973 946.25 115.75V85.0469C946.251 83.6483 946.682 82.284 947.484 81.1382C948.286 79.9925 949.421 79.1207 950.734 78.6406L975.938 69.5312V62.6094C975.935 60.464 975.233 58.3779 973.939 56.6667C972.645 54.9555 970.829 53.7123 968.766 53.125C967.887 52.8727 966.977 52.7464 966.063 52.75C964.343 52.7539 962.653 53.2006 961.156 54.0469L932.313 70.5C930.851 71.3329 929.636 72.5377 928.79 73.9922C927.945 75.4467 927.5 77.099 927.5 78.7812V121.531C927.498 122.401 927.722 123.257 928.151 124.014C928.579 124.772 929.197 125.404 929.944 125.85C930.692 126.296 931.542 126.54 932.412 126.558C933.282 126.576 934.141 126.368 934.906 125.953Z" fill="url(#paint4_linear_308_90)"/>
<path d="M975.937 126.562H946.141C945.04 126.574 943.974 126.947 943.105 127.623C942.236 128.299 941.613 129.241 941.331 130.305C941.049 131.369 941.124 132.496 941.544 133.513C941.964 134.531 942.706 135.382 943.656 135.938L961.406 146C962.868 146.831 964.521 147.267 966.203 147.266C967.108 147.265 968.008 147.133 968.875 146.875C970.913 146.296 972.706 145.066 973.981 143.374C975.256 141.682 975.943 139.619 975.937 137.5V126.562Z" fill="url(#paint5_linear_308_90)"/>
<path d="M0 0H870L830 200H0V0Z" fill="#EE5B3A"/>
<rect x="-18.2505" y="-26" width="363.843" height="177.837" transform="rotate(45 -18.2505 -26)" fill="#E94E32"/>
<path d="M486 100L658 -7.51836e-06L658 200L486 100Z" fill="#EA5034"/>
<path d="M830 100L658 200L658 2.05108e-06L830 100Z" fill="#FB6847"/>
<path d="M417.5 140L486 100V200H314L417.5 140Z" fill="#E94E32"/>
<defs>
<linearGradient id="paint0_linear_308_90" x1="830" y1="200" x2="1100" y2="9.5" gradientUnits="userSpaceOnUse">
<stop stop-color="#F8F4E5"/>
<stop offset="1" stop-color="#FFF1ED"/>
</linearGradient>
<linearGradient id="paint1_linear_308_90" x1="985.625" y1="47.7812" x2="985.625" y2="140.313" gradientUnits="userSpaceOnUse">
<stop stop-color="#FFB900"/>
<stop offset="0.17" stop-color="#EF8400"/>
<stop offset="0.31" stop-color="#E25C01"/>
<stop offset="0.43" stop-color="#DB4401"/>
<stop offset="0.5" stop-color="#D83B01"/>
</linearGradient>
<linearGradient id="paint2_linear_308_90" x1="968.938" y1="51.0469" x2="919.938" y2="121.016" gradientUnits="userSpaceOnUse">
<stop stop-color="#800600"/>
<stop offset="0.6" stop-color="#C72127"/>
<stop offset="0.73" stop-color="#C13959"/>
<stop offset="0.85" stop-color="#BC4B81"/>
<stop offset="0.94" stop-color="#B95799"/>
<stop offset="1" stop-color="#B85BA2"/>
</linearGradient>
<linearGradient id="paint3_linear_308_90" x1="943.906" y1="136.922" x2="1007.87" y2="136.922" gradientUnits="userSpaceOnUse">
<stop stop-color="#F32B44"/>
<stop offset="0.6" stop-color="#A4070A"/>
</linearGradient>
<linearGradient id="paint4_linear_308_90" x1="969.938" y1="49.625" x2="959.563" y2="64.4375" gradientUnits="userSpaceOnUse">
<stop stop-opacity="0.4"/>
<stop offset="1" stop-opacity="0"/>
</linearGradient>
<linearGradient id="paint5_linear_308_90" x1="987.375" y1="138.359" x2="958.734" y2="135.859" gradientUnits="userSpaceOnUse">
<stop stop-opacity="0.4"/>
<stop offset="1" stop-opacity="0"/>
</linearGradient>
</defs>
</svg>
