<svg width="958" height="200" viewBox="0 0 958 200" fill="none" xmlns="http://www.w3.org/2000/svg">
<rect x="738" width="238" height="200" fill="url(#paint0_linear_308_90)"/>
<path d="M0 0H774L738.414 200H0V0Z" fill="#EE5B3A"/>
<rect x="-18.2505" y="-26" width="363.843" height="177.837" transform="rotate(45 -18.2505 -26)" fill="#E94E32"/>
<path d="M421 100L565 -6.29444e-06L565 200L421 100Z" fill="#EA5034"/>
<path d="M709 100L565 200L565 1.71718e-06L709 100Z" fill="#FB6847"/>
<g style="mix-blend-mode:multiply" opacity="0.2">
<path d="M838.141 114.562C837.04 114.574 835.974 114.947 835.105 115.623C834.236 116.299 833.613 117.241 833.331 118.305C833.049 119.369 833.124 120.496 833.544 121.513C833.964 122.531 834.706 123.382 835.656 123.938L853.406 134C854.868 134.831 856.521 135.267 858.203 135.266C859.108 135.265 860.008 135.133 860.875 134.875L887.578 127.266C889.57 126.693 891.322 125.489 892.57 123.835C893.819 122.181 894.496 120.166 894.5 118.094V114.562H838.141Z" fill="white"/>
</g>
<g style="mix-blend-mode:multiply" opacity="0.12">
<path d="M838.141 114.562C837.04 114.574 835.974 114.947 835.105 115.623C834.236 116.299 833.613 117.241 833.331 118.305C833.049 119.369 833.124 120.496 833.544 121.513C833.964 122.531 834.706 123.382 835.656 123.938L853.406 134C854.868 134.831 856.521 135.267 858.203 135.266C859.108 135.265 860.008 135.133 860.875 134.875L887.578 127.266C889.57 126.693 891.322 125.489 892.57 123.835C893.819 122.181 894.496 120.166 894.5 118.094V114.562H838.141Z" fill="white"/>
</g>
<path d="M860.766 41.125L867.938 57.5312V114.562L860.875 134.875L887.578 127.266C889.57 126.693 891.322 125.489 892.57 123.835C893.819 122.181 894.496 120.166 894.5 118.094V57.9062C894.501 55.8285 893.824 53.8072 892.572 52.1491C891.32 50.491 889.561 49.2866 887.563 48.7188L860.766 41.125Z" fill="url(#paint1_linear_308_90)"/>
<path d="M826.906 113.953L834.719 109.734C835.79 109.146 836.683 108.279 837.305 107.226C837.926 106.173 838.253 104.973 838.25 103.75V73.0469C838.251 71.6483 838.682 70.284 839.484 69.1382C840.286 67.9925 841.421 67.1207 842.734 66.6406L867.938 57.5312V50.6094C867.935 48.464 867.233 46.3779 865.939 44.6667C864.645 42.9555 862.829 41.7123 860.766 41.125C859.887 40.8727 858.977 40.7464 858.063 40.75C856.343 40.7539 854.653 41.2006 853.156 42.0469L824.313 58.5C822.851 59.3329 821.636 60.5377 820.79 61.9922C819.945 63.4467 819.5 65.099 819.5 66.7812V109.531C819.498 110.401 819.722 111.257 820.151 112.014C820.579 112.772 821.197 113.404 821.944 113.85C822.692 114.296 823.542 114.54 824.412 114.558C825.282 114.576 826.141 114.368 826.906 113.953Z" fill="url(#paint2_linear_308_90)"/>
<path d="M867.937 114.562H838.141C837.04 114.574 835.974 114.947 835.105 115.623C834.236 116.299 833.613 117.241 833.331 118.305C833.049 119.369 833.124 120.496 833.544 121.513C833.964 122.531 834.706 123.382 835.656 123.938L853.406 134C854.868 134.831 856.521 135.267 858.203 135.266C859.108 135.265 860.008 135.133 860.875 134.875C862.913 134.296 864.706 133.066 865.981 131.374C867.256 129.682 867.943 127.619 867.937 125.5V114.562Z" fill="url(#paint3_linear_308_90)"/>
<path d="M826.906 113.953L834.719 109.734C835.79 109.146 836.683 108.279 837.305 107.226C837.926 106.173 838.253 104.973 838.25 103.75V73.0469C838.251 71.6483 838.682 70.284 839.484 69.1382C840.286 67.9925 841.421 67.1207 842.734 66.6406L867.938 57.5312V50.6094C867.935 48.464 867.233 46.3779 865.939 44.6667C864.645 42.9555 862.829 41.7123 860.766 41.125C859.887 40.8727 858.977 40.7464 858.063 40.75C856.343 40.7539 854.653 41.2006 853.156 42.0469L824.313 58.5C822.851 59.3329 821.636 60.5377 820.79 61.9922C819.945 63.4467 819.5 65.099 819.5 66.7812V109.531C819.498 110.401 819.722 111.257 820.151 112.014C820.579 112.772 821.197 113.404 821.944 113.85C822.692 114.296 823.542 114.54 824.412 114.558C825.282 114.576 826.141 114.368 826.906 113.953Z" fill="url(#paint4_linear_308_90)"/>
<path d="M867.937 114.562H838.141C837.04 114.574 835.974 114.947 835.105 115.623C834.236 116.299 833.613 117.241 833.331 118.305C833.049 119.369 833.124 120.496 833.544 121.513C833.964 122.531 834.706 123.382 835.656 123.938L853.406 134C854.868 134.831 856.521 135.267 858.203 135.266C859.108 135.265 860.008 135.133 860.875 134.875C862.913 134.296 864.706 133.066 865.981 131.374C867.256 129.682 867.943 127.619 867.937 125.5V114.562Z" fill="url(#paint5_linear_308_90)"/>
<path d="M363.651 140L421 100V200H277L363.651 140Z" fill="#E94E32"/>
<defs>
<linearGradient id="paint0_linear_308_90" x1="738" y1="200" x2="995.051" y2="40.1314" gradientUnits="userSpaceOnUse">
<stop stop-color="#F8F4E5"/>
<stop offset="1" stop-color="#FFF1ED"/>
</linearGradient>
<linearGradient id="paint1_linear_308_90" x1="877.625" y1="35.7812" x2="877.625" y2="128.313" gradientUnits="userSpaceOnUse">
<stop stop-color="#FFB900"/>
<stop offset="0.17" stop-color="#EF8400"/>
<stop offset="0.31" stop-color="#E25C01"/>
<stop offset="0.43" stop-color="#DB4401"/>
<stop offset="0.5" stop-color="#D83B01"/>
</linearGradient>
<linearGradient id="paint2_linear_308_90" x1="860.938" y1="39.0469" x2="811.938" y2="109.016" gradientUnits="userSpaceOnUse">
<stop stop-color="#800600"/>
<stop offset="0.6" stop-color="#C72127"/>
<stop offset="0.73" stop-color="#C13959"/>
<stop offset="0.85" stop-color="#BC4B81"/>
<stop offset="0.94" stop-color="#B95799"/>
<stop offset="1" stop-color="#B85BA2"/>
</linearGradient>
<linearGradient id="paint3_linear_308_90" x1="835.906" y1="124.922" x2="899.875" y2="124.922" gradientUnits="userSpaceOnUse">
<stop stop-color="#F32B44"/>
<stop offset="0.6" stop-color="#A4070A"/>
</linearGradient>
<linearGradient id="paint4_linear_308_90" x1="861.938" y1="37.625" x2="851.563" y2="52.4375" gradientUnits="userSpaceOnUse">
<stop stop-opacity="0.4"/>
<stop offset="1" stop-opacity="0"/>
</linearGradient>
<linearGradient id="paint5_linear_308_90" x1="879.375" y1="126.359" x2="850.734" y2="123.859" gradientUnits="userSpaceOnUse">
<stop stop-opacity="0.4"/>
<stop offset="1" stop-opacity="0"/>
</linearGradient>
</defs>
</svg>
