<svg width="27" height="27" viewBox="0 0 27 27" fill="none" xmlns="http://www.w3.org/2000/svg">
<path d="M26.9126 11.4794C26.5501 7.99163 24.6953 4.8819 21.6939 2.71881C18.4694 0.394906 14.2945 -0.494606 10.5255 0.342779C6.94225 1.13888 3.79765 3.44509 1.89476 6.66678C-0.00870312 9.89281 -0.506157 13.7614 0.530253 17.2847C1.08875 19.1858 2.07973 20.9722 3.39332 22.4553C4.71925 23.9508 6.38147 25.1452 8.20471 25.9109C9.88611 26.616 11.6723 26.9661 13.4569 26.9661C15.8905 26.966 18.3141 26.3156 20.4415 25.0337L18.9375 22.5321C16.0439 24.2757 12.4564 24.5308 9.33553 23.221C6.46298 22.0115 4.21844 19.4856 3.3305 16.4636C2.52214 13.7114 2.91363 10.6809 4.40905 8.14994C5.90099 5.62081 8.36144 3.81426 11.1565 3.19159C14.1261 2.53376 17.428 3.23929 19.9886 5.08599C22.3063 6.7542 23.7322 9.13415 24.0079 11.7824C24.1872 13.4924 24.03 14.841 23.5425 15.7919C22.5094 17.8022 21.0092 17.8142 20.4139 17.7266C20.3938 17.7237 20.38 17.7208 20.3676 17.7183C20.1967 17.4538 20.2185 16.4712 20.2268 16.0445C20.23 15.8782 20.2328 15.7184 20.2328 15.5693V7.57832H17.9973C17.7122 7.34457 17.4108 7.13257 17.0936 6.94217C15.8759 6.21774 14.4652 5.83317 13.0107 5.83317C10.9372 5.83317 8.98833 6.58884 7.52734 7.9599C5.20715 10.1379 4.48742 13.7138 5.77662 16.6613C6.38832 18.0604 7.42137 19.2214 8.76277 20.0175C10.0186 20.7616 11.4855 21.1565 13.0035 21.1565C14.7431 21.1565 16.3422 20.6762 17.6285 19.7665C17.7651 19.6708 17.9004 19.5676 18.0297 19.4647C18.4883 20.0925 19.1572 20.4915 19.9881 20.6137C21.1397 20.7855 22.2914 20.5953 23.3243 20.0669C24.4975 19.4666 25.4432 18.476 26.1367 17.1239C26.8985 15.6414 27.153 13.7955 26.9126 11.4794ZM17.2804 16.0117C17.2169 16.1031 17.1214 16.219 17.0692 16.2828C17.0265 16.3383 16.9872 16.387 16.9521 16.4307C16.6763 16.7859 16.339 17.1067 15.9457 17.3844C15.1427 17.9508 14.1521 18.2375 13.0037 18.2375C10.938 18.2375 9.19134 17.1857 8.45087 15.489C7.64807 13.657 8.08926 11.4347 9.523 10.0914C10.4286 9.23926 11.7006 8.75193 13.0108 8.75193C13.9398 8.75193 14.8335 8.9926 15.5971 9.44991C16.0842 9.74028 16.5142 10.1157 16.8735 10.5708C16.9089 10.6145 16.9507 10.6651 16.9964 10.7201C17.0643 10.8011 17.197 10.9653 17.2803 11.0833V16.0117H17.2804Z" fill="#5D3EDF"/>
</svg>
