<svg width="27" height="22" viewBox="0 0 27 22" fill="none" xmlns="http://www.w3.org/2000/svg">
<path d="M24.6981 0.194222C24.6981 0.194222 27.1958 -0.758063 26.9877 1.55463C26.9183 2.50693 26.2939 5.83993 25.8082 9.44503L24.1431 20.1243C24.1431 20.1243 24.0044 21.6887 22.7555 21.9608C21.5066 22.2329 19.6334 21.0085 19.2864 20.7364C19.0089 20.5324 14.083 17.4714 12.3484 15.975C11.8627 15.5669 11.3077 14.7506 12.4178 13.7983L19.7027 6.99631C20.5353 6.18005 21.3679 4.27548 17.8988 6.58818L8.18557 13.0501C8.18557 13.0501 7.07548 13.7303 4.9941 13.1182L0.484342 11.7577C0.484342 11.7577 -1.18079 10.7374 1.66381 9.71708C8.60188 6.5201 17.1357 3.25512 24.6981 0.194222Z" fill="white"/>
</svg>
