<svg width="26" height="26" viewBox="0 0 26 26" fill="none" xmlns="http://www.w3.org/2000/svg">
<path d="M21.5165 3.67369C19.2468 1.404 16.1114 0 12.6478 0C5.72147 0 0.105469 5.61516 0.105469 12.5423C0.105469 14.8475 0.727312 17.0066 1.81153 18.8629L1.77947 18.8038L0 25.3024L6.64791 23.5583C8.37844 24.5194 10.4431 25.0847 12.6402 25.0847H12.6453C19.5716 25.0822 25.1851 19.4662 25.1851 12.5398C25.1851 9.07791 23.7828 5.94422 21.5156 3.67453L21.5165 3.67369ZM12.6453 22.966H12.6411C10.6844 22.966 8.85262 22.426 7.28916 21.4869L7.33641 21.5131L6.95588 21.2878L3.01134 22.3231L4.0635 18.4764L3.81544 18.0824C2.81559 16.5113 2.22159 14.5969 2.22159 12.5432C2.22159 6.78713 6.88838 2.12034 12.6444 2.12034C18.4005 2.12034 23.0673 6.78713 23.0673 12.5432C23.0673 18.2992 18.4022 22.966 12.6453 22.966ZM18.3625 15.1605C18.0495 15.0036 16.5088 14.2467 16.2219 14.1412C15.9342 14.0366 15.725 13.9852 15.5157 14.299C15.3082 14.6121 14.7074 15.3174 14.5243 15.5267C14.3421 15.7368 14.1581 15.7621 13.8451 15.606C12.8748 15.2128 12.0412 14.6888 11.3164 14.0434L11.3248 14.051C10.6507 13.4266 10.0727 12.7119 9.60609 11.9239L9.58247 11.88C9.40022 11.567 9.56306 11.3974 9.71916 11.2413C9.86006 11.1012 10.033 10.8751 10.1891 10.6928C10.3123 10.5418 10.4178 10.3688 10.4979 10.1832L10.503 10.1689C10.5393 10.0955 10.5604 10.0103 10.5604 9.91913C10.5604 9.80859 10.5292 9.70566 10.4752 9.61791L10.4768 9.62044C10.3975 9.4635 9.77147 7.92112 9.51075 7.29338C9.25594 6.6825 8.99691 6.76603 8.80538 6.75591C8.62313 6.74747 8.41387 6.74578 8.20463 6.74578C7.87134 6.75422 7.57519 6.90441 7.371 7.13644L7.37016 7.13812C6.69347 7.78022 6.27328 8.68556 6.27328 9.68878C6.27328 9.71072 6.27328 9.7335 6.27413 9.75544V9.75206C6.38466 10.9898 6.84872 12.1011 7.56253 13.0064L7.55241 12.9938C8.90578 15.001 10.7097 16.6067 12.8267 17.6884L12.906 17.7247C13.3684 17.9339 13.9607 18.1575 14.5665 18.349L14.6922 18.3836C15.0652 18.5018 15.4946 18.5701 15.9401 18.5701C16.1958 18.5701 16.4472 18.5473 16.6902 18.5043L16.6641 18.5077C17.566 18.3195 18.3144 17.7753 18.7709 17.0319L18.7785 17.0176C18.9177 16.7088 18.9987 16.3485 18.9987 15.9697C18.9987 15.8136 18.9852 15.6608 18.9591 15.5123L18.9616 15.5284C18.884 15.3976 18.6747 15.32 18.3608 15.1622L18.3625 15.1605Z" fill="white"/>
</svg>
